# xmcd
#
# Track frame offsets:
#	150
#	19635
#	41015
#	59532
#	73735
#	95145
#	104712
#	121922
#	138912
#	155277
#	165112
#	194405
#	209990
#	232645
#	247917
#
# Disc length: 3463
#
# Revision: 1
# Processed by: cddbd v1.5.1PL0 Copyright (c) Steve Scherf et al.
# Submitted via: ExactAudioCopy v0.95a4
# Normalized: r0:TDELIM( - )
#
DISCID=ce0d850f
DTITLE=Various Artist - Rhythm and Soul n°24
DYEAR=2000
DGENRE=Soul
TTITLE0=De La Soul - Say No Go
TTITLE1=Guy - Wanna Get With U
TTITLE2=Sister Sledge - He's The Greatest Dancer
TTITLE3=Michael Jackson - Just A Litle Bit Of You
TTITLE4=Ohio Players - Love Rollercoaster
TTITLE5=James Brown - I'll Go Crazy
TTITLE6=The Bar-Kays - Hit and Run
TTITLE7=L.V. - Throw Your Hands Up
TTITLE8=Bill Withers - Use Me
TTITLE9=Stevie Wonder - Castles In The Sand
TTITLE10=Billy Paul - Your Song
TTITLE11=Stephanie Mills - Never Knew Love Like This Before
TTITLE12=Browstone - If You Love Me
TTITLE13=Harold Melvin - If You Don't Know Me By Now
TTITLE14=The Platters - Smoke Gets In Your Eyes
EXTD=
EXTT0=
EXTT1=
EXTT2=
EXTT3=
EXTT4=
EXTT5=
EXTT6=
EXTT7=
EXTT8=
EXTT9=
EXTT10=
EXTT11=
EXTT12=
EXTT13=
EXTT14=
PLAYORDER=
